<mxfile host="app.diagrams.net" agent="Mozilla/5.0 (Windows NT 10.0; Win64; x64; rv:139.0) Gecko/20100101 Firefox/139.0" version="26.2.14">
  <diagram name="Page-1" id="0xsrVitDZ_Rx339aQKl2">
    <mxGraphModel dx="1042" dy="660" grid="1" gridSize="10" guides="1" tooltips="1" connect="1" arrows="1" fold="1" page="1" pageScale="1" pageWidth="827" pageHeight="1169" math="0" shadow="0">
      <root>
        <mxCell id="0" />
        <mxCell id="1" parent="0" />
        <mxCell id="2zLwSKbQhYF5bp15ZWJ5-9" style="edgeStyle=orthogonalEdgeStyle;rounded=0;orthogonalLoop=1;jettySize=auto;html=1;entryX=0.5;entryY=0;entryDx=0;entryDy=0;" parent="1" source="2zLwSKbQhYF5bp15ZWJ5-1" target="2zLwSKbQhYF5bp15ZWJ5-3" edge="1">
          <mxGeometry relative="1" as="geometry" />
        </mxCell>
        <mxCell id="2zLwSKbQhYF5bp15ZWJ5-1" value="Web Scraping Torrents" style="rounded=1;whiteSpace=wrap;html=1;fillColor=none;" parent="1" vertex="1">
          <mxGeometry x="23" y="290" width="120" height="60" as="geometry" />
        </mxCell>
        <mxCell id="2zLwSKbQhYF5bp15ZWJ5-3" value="Torrent Downloader" style="rounded=1;whiteSpace=wrap;html=1;fillColor=none;" parent="1" vertex="1">
          <mxGeometry x="23" y="430" width="120" height="60" as="geometry" />
        </mxCell>
        <mxCell id="2zLwSKbQhYF5bp15ZWJ5-12" style="edgeStyle=orthogonalEdgeStyle;rounded=0;orthogonalLoop=1;jettySize=auto;html=1;entryX=0;entryY=0.5;entryDx=0;entryDy=0;" parent="1" source="2zLwSKbQhYF5bp15ZWJ5-6" target="2zLwSKbQhYF5bp15ZWJ5-8" edge="1">
          <mxGeometry relative="1" as="geometry" />
        </mxCell>
        <mxCell id="2zLwSKbQhYF5bp15ZWJ5-6" value="" style="rounded=1;whiteSpace=wrap;html=1;fillColor=none;" parent="1" vertex="1">
          <mxGeometry x="304" y="210" width="220" height="280" as="geometry" />
        </mxCell>
        <mxCell id="2zLwSKbQhYF5bp15ZWJ5-4" value="&lt;div&gt;Audio Extraction&lt;/div&gt;" style="rounded=1;whiteSpace=wrap;html=1;fillColor=none;" parent="1" vertex="1">
          <mxGeometry x="354" y="310" width="120" height="60" as="geometry" />
        </mxCell>
        <mxCell id="2zLwSKbQhYF5bp15ZWJ5-5" value="Subtitle Extraction" style="rounded=1;whiteSpace=wrap;html=1;fillColor=none;" parent="1" vertex="1">
          <mxGeometry x="354" y="390" width="120" height="60" as="geometry" />
        </mxCell>
        <mxCell id="2zLwSKbQhYF5bp15ZWJ5-7" value="&lt;div&gt;&lt;font style=&quot;font-size: 16px;&quot;&gt;Movie File Processing&lt;/font&gt;&lt;/div&gt;" style="text;html=1;align=center;verticalAlign=middle;whiteSpace=wrap;rounded=0;" parent="1" vertex="1">
          <mxGeometry x="384" y="240" width="60" height="30" as="geometry" />
        </mxCell>
        <mxCell id="SVMG6oyyHwduZQ5tY4o2-2" style="edgeStyle=orthogonalEdgeStyle;rounded=0;orthogonalLoop=1;jettySize=auto;html=1;entryX=0;entryY=0.5;entryDx=0;entryDy=0;" edge="1" parent="1" source="2zLwSKbQhYF5bp15ZWJ5-8" target="SVMG6oyyHwduZQ5tY4o2-1">
          <mxGeometry relative="1" as="geometry" />
        </mxCell>
        <mxCell id="2zLwSKbQhYF5bp15ZWJ5-8" value="Audio Segmenting" style="rounded=1;whiteSpace=wrap;html=1;fillColor=none;" parent="1" vertex="1">
          <mxGeometry x="600" y="320" width="120" height="60" as="geometry" />
        </mxCell>
        <mxCell id="2zLwSKbQhYF5bp15ZWJ5-19" value="" style="curved=1;endArrow=none;html=1;rounded=0;exitX=0;exitY=0.5;exitDx=0;exitDy=0;entryX=0;entryY=0.5;entryDx=0;entryDy=0;dashed=1;dashPattern=1 2;startFill=0;" parent="1" source="2zLwSKbQhYF5bp15ZWJ5-6" target="2zLwSKbQhYF5bp15ZWJ5-4" edge="1">
          <mxGeometry width="50" height="50" relative="1" as="geometry">
            <mxPoint x="317" y="350" as="sourcePoint" />
            <mxPoint x="367" y="300" as="targetPoint" />
            <Array as="points">
              <mxPoint x="327" y="350" />
              <mxPoint x="327" y="320" />
            </Array>
          </mxGeometry>
        </mxCell>
        <mxCell id="2zLwSKbQhYF5bp15ZWJ5-22" value="" style="curved=1;endArrow=none;html=1;rounded=0;exitX=0;exitY=0.5;exitDx=0;exitDy=0;entryX=0;entryY=0.5;entryDx=0;entryDy=0;dashed=1;dashPattern=1 2;startFill=0;" parent="1" source="2zLwSKbQhYF5bp15ZWJ5-6" target="2zLwSKbQhYF5bp15ZWJ5-5" edge="1">
          <mxGeometry width="50" height="50" relative="1" as="geometry">
            <mxPoint x="321" y="380" as="sourcePoint" />
            <mxPoint x="371" y="370" as="targetPoint" />
            <Array as="points">
              <mxPoint x="344" y="350" />
              <mxPoint x="327" y="430" />
            </Array>
          </mxGeometry>
        </mxCell>
        <mxCell id="2zLwSKbQhYF5bp15ZWJ5-23" value="" style="curved=1;endArrow=none;html=1;rounded=0;exitX=1;exitY=0.5;exitDx=0;exitDy=0;entryX=1;entryY=0.5;entryDx=0;entryDy=0;dashed=1;dashPattern=1 2;startFill=0;" parent="1" source="2zLwSKbQhYF5bp15ZWJ5-4" target="2zLwSKbQhYF5bp15ZWJ5-6" edge="1">
          <mxGeometry width="50" height="50" relative="1" as="geometry">
            <mxPoint x="474" y="350" as="sourcePoint" />
            <mxPoint x="524" y="340" as="targetPoint" />
            <Array as="points">
              <mxPoint x="487" y="330" />
              <mxPoint x="497" y="350" />
            </Array>
          </mxGeometry>
        </mxCell>
        <mxCell id="2zLwSKbQhYF5bp15ZWJ5-25" value="" style="curved=1;endArrow=none;html=1;rounded=0;exitX=1;exitY=0.5;exitDx=0;exitDy=0;entryX=1;entryY=0.5;entryDx=0;entryDy=0;dashed=1;dashPattern=1 2;startFill=0;" parent="1" source="2zLwSKbQhYF5bp15ZWJ5-6" target="2zLwSKbQhYF5bp15ZWJ5-5" edge="1">
          <mxGeometry width="50" height="50" relative="1" as="geometry">
            <mxPoint x="474" y="370" as="sourcePoint" />
            <mxPoint x="524" y="440" as="targetPoint" />
            <Array as="points">
              <mxPoint x="497" y="370" />
              <mxPoint x="517" y="440" />
            </Array>
          </mxGeometry>
        </mxCell>
        <mxCell id="SVMG6oyyHwduZQ5tY4o2-1" value="Filtering" style="rounded=1;whiteSpace=wrap;html=1;fillColor=none;" vertex="1" parent="1">
          <mxGeometry x="780" y="320" width="120" height="60" as="geometry" />
        </mxCell>
        <mxCell id="SVMG6oyyHwduZQ5tY4o2-3" style="edgeStyle=orthogonalEdgeStyle;rounded=0;orthogonalLoop=1;jettySize=auto;html=1;entryX=0;entryY=0.5;entryDx=0;entryDy=0;" edge="1" parent="1">
          <mxGeometry relative="1" as="geometry">
            <mxPoint x="900" y="349.83" as="sourcePoint" />
            <mxPoint x="960" y="349.83" as="targetPoint" />
          </mxGeometry>
        </mxCell>
        <mxCell id="SVMG6oyyHwduZQ5tY4o2-4" value="" style="curved=1;endArrow=classic;html=1;rounded=0;exitX=1;exitY=0.5;exitDx=0;exitDy=0;entryX=0;entryY=0.5;entryDx=0;entryDy=0;" edge="1" parent="1" source="2zLwSKbQhYF5bp15ZWJ5-3" target="2zLwSKbQhYF5bp15ZWJ5-6">
          <mxGeometry width="50" height="50" relative="1" as="geometry">
            <mxPoint x="280" y="410" as="sourcePoint" />
            <mxPoint x="330" y="360" as="targetPoint" />
            <Array as="points">
              <mxPoint x="260" y="440" />
              <mxPoint x="160" y="360" />
            </Array>
          </mxGeometry>
        </mxCell>
        <mxCell id="SVMG6oyyHwduZQ5tY4o2-6" value="" style="endArrow=classic;html=1;rounded=0;" edge="1" parent="1">
          <mxGeometry width="50" height="50" relative="1" as="geometry">
            <mxPoint x="80" y="210" as="sourcePoint" />
            <mxPoint x="80" y="290" as="targetPoint" />
          </mxGeometry>
        </mxCell>
      </root>
    </mxGraphModel>
  </diagram>
</mxfile>
